  0
SECTION
  2
HEADER
  9
$ACADVER
  1
AC1009
  9
$INSBASE
 10
0.0
 20
0.0
 30
0.0
  9
$EXTMIN
 10
0.0
 20
0.0
 30
0.0
  9
$EXTMAX
 10
0.0
 20
0.0
 30
0.0
  0
ENDSEC
  0
SECTION
  2
TABLES
  0
TABLE
  2
VPORT
 70
0
  0
ENDTAB
  0
TABLE
  2
LTYPE
 70
1
  0
LTYPE
  2
CONTINUOUS
 70
0
  3
Solid line
 72
65
 73
0
 40
0.0
  0
ENDTAB
  0
TABLE
  2
LAYER
 70
1
  0
LAYER
  2
0
 70
64
 62
7
  6
continuous
  0
ENDTAB
  0
TABLE
  2
STYLE
 70
1
  0
STYLE
  2
STANDARD
 70
0
 40
0
 41
1.0
 50
0.0
 71
0
 42
1
 3
ARIAL.TTF
 4

  0
ENDTAB
  0
TABLE
  2
VIEW
 70
0
  0
ENDTAB
  0
ENDSEC
  0
SECTION
  2
BLOCKS
  0
BLOCK
  8
0
  2
SHAPE2DVIEW001
 70
0
 10
0.0
 20
0.0
 30
0.0
  3
SHAPE2DVIEW001
  0
LINE
  8
0
 62
0
 10
52.309955
 20
-111.63990099999998
 30
0.0
 11
52.309955
 21
-17.899975999999995
 31
0.0
  0
ARC
  8
0
 62
0
 10
59.809955
 20
-111.639901
 30
0.0
 40
7.5
 50
180.0
 51
-90.0
  0
ARC
  8
0
 62
0
 10
59.809955
 20
-17.899976
 30
0.0
 40
7.5
 50
89.99999999999994
 51
-180.0
  0
LINE
  8
0
 62
0
 10
219.589857
 20
-119.139901
 30
0.0
 11
59.809955
 21
-119.139901
 31
0.0
  0
LINE
  8
0
 62
0
 10
59.80995500000001
 20
-10.399975999999999
 30
0.0
 11
219.589857
 21
-10.399975999999999
 31
0.0
  0
ARC
  8
0
 62
0
 10
219.589857
 20
-111.639901
 30
0.0
 40
7.5
 50
-90.0
 51
-0.0
  0
ARC
  8
0
 62
0
 10
219.589857
 20
-17.899976
 30
0.0
 40
7.5
 50
-0.0
 51
90.0
  0
LINE
  8
0
 62
0
 10
227.089857
 20
-17.899976
 30
0.0
 11
227.089857
 21
-111.639901
 31
0.0
  0
LINE
  8
0
 62
0
 10
62.30995500000013
 20
-106.63990099990058
 30
0.0
 11
62.30995500000013
 21
-22.899976000099414
 31
0.0
  0
ARC
  8
0
 62
0
 10
64.80995500000013
 20
-22.899976000087243
 30
0.0
 40
2.5
 50
90.00000000066831
 51
-180.0
  0
LINE
  8
0
 62
0
 10
64.80995499997097
 20
-20.399976
 30
0.0
 11
214.589857
 21
-20.399976
 31
0.0
  0
ARC
  8
0
 62
0
 10
214.589857
 20
-22.899976
 30
0.0
 40
2.5
 50
-0.0
 51
90.0
  0
LINE
  8
0
 62
0
 10
217.089857
 20
-22.899976000000013
 30
0.0
 11
217.089857
 21
-106.63990099999998
 31
0.0
  0
ARC
  8
0
 62
0
 10
214.589857
 20
-106.639901
 30
0.0
 40
2.5
 50
-90.0
 51
0.0
  0
LINE
  8
0
 62
0
 10
214.589857
 20
-109.13990099991275
 30
0.0
 11
64.80995499997096
 21
-109.13990099991275
 31
0.0
  0
ARC
  8
0
 62
0
 10
64.80995500000013
 20
-106.63990099991275
 30
0.0
 40
2.5
 50
180.0
 51
-90.00000000066831
  0
POLYLINE
  8
0
 62
0
 70
0
 66
1
 10
0.0
 20
0.0
 30
0.0
  0
VERTEX
  8
0
 10
212.089857
 20
-25.399975999999995
 30
0.0
  0
VERTEX
  8
0
 10
212.08985708975456
 20
-27.939973486211898
 30
0.0
  0
VERTEX
  8
0
 10
212.08985717950912
 20
-30.4799709724238
 30
0.0
  0
SEQEND
  8
0
  0
POLYLINE
  8
0
 62
0
 70
0
 66
1
 10
0.0
 20
0.0
 30
0.0
  0
VERTEX
  8
0
 10
212.089857
 20
-104.139901
 30
0.0
  0
VERTEX
  8
0
 10
212.08985701196727
 20
-99.22923899816158
 30
0.0
  0
VERTEX
  8
0
 10
212.08985702393454
 20
-94.31857699632317
 30
0.0
  0
VERTEX
  8
0
 10
212.08985703590182
 20
-89.40791499448476
 30
0.0
  0
VERTEX
  8
0
 10
212.0898570478691
 20
-84.49725299264634
 30
0.0
  0
VERTEX
  8
0
 10
212.08985705983636
 20
-79.58659099080793
 30
0.0
  0
VERTEX
  8
0
 10
212.08985707180364
 20
-74.67592898896952
 30
0.0
  0
VERTEX
  8
0
 10
212.0898570837709
 20
-69.7652669871311
 30
0.0
  0
VERTEX
  8
0
 10
212.0898570957382
 20
-64.8546049852927
 30
0.0
  0
VERTEX
  8
0
 10
212.08985710770548
 20
-59.94394298345428
 30
0.0
  0
VERTEX
  8
0
 10
212.08985711967276
 20
-55.03328098161587
 30
0.0
  0
VERTEX
  8
0
 10
212.08985713164003
 20
-50.12261897977746
 30
0.0
  0
VERTEX
  8
0
 10
212.0898571436073
 20
-45.21195697793904
 30
0.0
  0
VERTEX
  8
0
 10
212.08985715557458
 20
-40.30129497610062
 30
0.0
  0
VERTEX
  8
0
 10
212.08985716754185
 20
-35.39063297426222
 30
0.0
  0
VERTEX
  8
0
 10
212.08985717950912
 20
-30.4799709724238
 30
0.0
  0
SEQEND
  8
0
  0
POLYLINE
  8
0
 62
0
 70
0
 66
1
 10
0.0
 20
0.0
 30
0.0
  0
VERTEX
  8
0
 10
77.46994783203627
 20
-104.13990082244798
 30
0.0
  0
VERTEX
  8
0
 10
82.4558703938127
 20
-104.13990082902399
 30
0.0
  0
VERTEX
  8
0
 10
87.44179295558914
 20
-104.13990083559999
 30
0.0
  0
VERTEX
  8
0
 10
92.42771551736557
 20
-104.13990084217599
 30
0.0
  0
VERTEX
  8
0
 10
97.413638079142
 20
-104.13990084875199
 30
0.0
  0
VERTEX
  8
0
 10
102.39956064091844
 20
-104.13990085532798
 30
0.0
  0
VERTEX
  8
0
 10
107.38548320269487
 20
-104.13990086190398
 30
0.0
  0
VERTEX
  8
0
 10
112.3714057644713
 20
-104.13990086847998
 30
0.0
  0
VERTEX
  8
0
 10
117.35732832624774
 20
-104.13990087505599
 30
0.0
  0
VERTEX
  8
0
 10
122.34325088802417
 20
-104.13990088163199
 30
0.0
  0
VERTEX
  8
0
 10
127.3291734498006
 20
-104.13990088820799
 30
0.0
  0
VERTEX
  8
0
 10
132.31509601157705
 20
-104.13990089478399
 30
0.0
  0
VERTEX
  8
0
 10
137.30101857335347
 20
-104.13990090136
 30
0.0
  0
VERTEX
  8
0
 10
142.2869411351299
 20
-104.139900907936
 30
0.0
  0
VERTEX
  8
0
 10
147.27286369690634
 20
-104.13990091451198
 30
0.0
  0
VERTEX
  8
0
 10
152.2587862586828
 20
-104.13990092108799
 30
0.0
  0
VERTEX
  8
0
 10
157.2447088204592
 20
-104.13990092766399
 30
0.0
  0
VERTEX
  8
0
 10
162.23063138223563
 20
-104.13990093423999
 30
0.0
  0
VERTEX
  8
0
 10
167.21655394401208
 20
-104.13990094081599
 30
0.0
  0
VERTEX
  8
0
 10
172.20247650578852
 20
-104.139900947392
 30
0.0
  0
VERTEX
  8
0
 10
177.18839906756494
 20
-104.139900953968
 30
0.0
  0
VERTEX
  8
0
 10
182.17432162934136
 20
-104.139900960544
 30
0.0
  0
VERTEX
  8
0
 10
187.1602441911178
 20
-104.13990096712
 30
0.0
  0
VERTEX
  8
0
 10
192.14616675289426
 20
-104.13990097369599
 30
0.0
  0
VERTEX
  8
0
 10
197.13208931467068
 20
-104.13990098027199
 30
0.0
  0
VERTEX
  8
0
 10
202.1180118764471
 20
-104.13990098684799
 30
0.0
  0
VERTEX
  8
0
 10
207.10393443822355
 20
-104.13990099342399
 30
0.0
  0
VERTEX
  8
0
 10
212.089857
 20
-104.139901
 30
0.0
  0
SEQEND
  8
0
  0
POLYLINE
  8
0
 62
0
 70
0
 66
1
 10
0.0
 20
0.0
 30
0.0
  0
VERTEX
  8
0
 10
67.309955
 20
-104.139901
 30
0.0
  0
VERTEX
  8
0
 10
70.69661927734542
 20
-104.13990094081599
 30
0.0
  0
VERTEX
  8
0
 10
74.08328355469085
 20
-104.13990088163199
 30
0.0
  0
VERTEX
  8
0
 10
77.46994783203627
 20
-104.13990082244798
 30
0.0
  0
SEQEND
  8
0
  0
POLYLINE
  8
0
 62
0
 70
0
 66
1
 10
0.0
 20
0.0
 30
0.0
  0
VERTEX
  8
0
 10
67.30995467373643
 20
-30.4799709724238
 30
0.0
  0
VERTEX
  8
0
 10
67.30995469548733
 20
-35.39063297426221
 30
0.0
  0
VERTEX
  8
0
 10
67.30995471723824
 20
-40.30129497610063
 30
0.0
  0
VERTEX
  8
0
 10
67.30995473898915
 20
-45.21195697793904
 30
0.0
  0
VERTEX
  8
0
 10
67.30995476074004
 20
-50.12261897977746
 30
0.0
  0
VERTEX
  8
0
 10
67.30995478249095
 20
-55.03328098161586
 30
0.0
  0
VERTEX
  8
0
 10
67.30995480424185
 20
-59.94394298345428
 30
0.0
  0
VERTEX
  8
0
 10
67.30995482599276
 20
-64.8546049852927
 30
0.0
  0
VERTEX
  8
0
 10
67.30995484774367
 20
-69.7652669871311
 30
0.0
  0
VERTEX
  8
0
 10
67.30995486949458
 20
-74.67592898896952
 30
0.0
  0
VERTEX
  8
0
 10
67.30995489124548
 20
-79.58659099080793
 30
0.0
  0
VERTEX
  8
0
 10
67.30995491299639
 20
-84.49725299264634
 30
0.0
  0
VERTEX
  8
0
 10
67.30995493474728
 20
-89.40791499448476
 30
0.0
  0
VERTEX
  8
0
 10
67.30995495649819
 20
-94.31857699632317
 30
0.0
  0
VERTEX
  8
0
 10
67.3099549782491
 20
-99.22923899816158
 30
0.0
  0
VERTEX
  8
0
 10
67.309955
 20
-104.139901
 30
0.0
  0
SEQEND
  8
0
  0
POLYLINE
  8
0
 62
0
 70
0
 66
1
 10
0.0
 20
0.0
 30
0.0
  0
VERTEX
  8
0
 10
67.30995467373643
 20
-30.4799709724238
 30
0.0
  0
VERTEX
  8
0
 10
67.30995483686822
 20
-27.939973486211898
 30
0.0
  0
VERTEX
  8
0
 10
67.309955
 20
-25.399975999999995
 30
0.0
  0
SEQEND
  8
0
  0
POLYLINE
  8
0
 62
0
 70
0
 66
1
 10
0.0
 20
0.0
 30
0.0
  0
VERTEX
  8
0
 10
67.309955
 20
-25.399975999999995
 30
0.0
  0
VERTEX
  8
0
 10
72.30236541379311
 20
-25.399975999999995
 30
0.0
  0
VERTEX
  8
0
 10
77.29477582758621
 20
-25.399975999999995
 30
0.0
  0
VERTEX
  8
0
 10
82.28718624137932
 20
-25.399975999999995
 30
0.0
  0
VERTEX
  8
0
 10
87.27959665517241
 20
-25.399975999999995
 30
0.0
  0
VERTEX
  8
0
 10
92.27200706896552
 20
-25.399975999999995
 30
0.0
  0
VERTEX
  8
0
 10
97.26441748275862
 20
-25.399975999999995
 30
0.0
  0
VERTEX
  8
0
 10
102.25682789655173
 20
-25.399975999999995
 30
0.0
  0
VERTEX
  8
0
 10
107.24923831034482
 20
-25.399975999999995
 30
0.0
  0
VERTEX
  8
0
 10
112.24164872413793
 20
-25.399975999999995
 30
0.0
  0
VERTEX
  8
0
 10
117.23405913793104
 20
-25.399975999999995
 30
0.0
  0
VERTEX
  8
0
 10
122.22646955172414
 20
-25.399975999999995
 30
0.0
  0
VERTEX
  8
0
 10
127.21887996551723
 20
-25.399975999999995
 30
0.0
  0
VERTEX
  8
0
 10
132.21129037931036
 20
-25.399975999999995
 30
0.0
  0
VERTEX
  8
0
 10
137.20370079310345
 20
-25.399975999999995
 30
0.0
  0
VERTEX
  8
0
 10
142.19611120689655
 20
-25.399975999999995
 30
0.0
  0
VERTEX
  8
0
 10
147.18852162068964
 20
-25.399975999999995
 30
0.0
  0
VERTEX
  8
0
 10
152.18093203448274
 20
-25.399975999999995
 30
0.0
  0
VERTEX
  8
0
 10
157.17334244827586
 20
-25.399975999999995
 30
0.0
  0
VERTEX
  8
0
 10
162.16575286206896
 20
-25.399975999999995
 30
0.0
  0
VERTEX
  8
0
 10
167.15816327586208
 20
-25.399975999999995
 30
0.0
  0
VERTEX
  8
0
 10
172.15057368965518
 20
-25.399975999999995
 30
0.0
  0
VERTEX
  8
0
 10
177.14298410344827
 20
-25.399975999999995
 30
0.0
  0
VERTEX
  8
0
 10
182.13539451724137
 20
-25.399975999999995
 30
0.0
  0
VERTEX
  8
0
 10
187.12780493103446
 20
-25.399975999999995
 30
0.0
  0
VERTEX
  8
0
 10
192.12021534482756
 20
-25.399975999999995
 30
0.0
  0
VERTEX
  8
0
 10
197.11262575862068
 20
-25.399975999999995
 30
0.0
  0
VERTEX
  8
0
 10
202.10503617241378
 20
-25.399975999999995
 30
0.0
  0
VERTEX
  8
0
 10
207.09744658620687
 20
-25.399975999999995
 30
0.0
  0
VERTEX
  8
0
 10
212.089857
 20
-25.399975999999995
 30
0.0
  0
SEQEND
  8
0
  0
POLYLINE
  8
0
 62
0
 70
0
 66
1
 10
0.0
 20
0.0
 30
0.0
  0
VERTEX
  8
0
 10
187.42901378602582
 20
-59.15908365989356
 30
0.0
  0
VERTEX
  8
0
 10
187.42901378602582
 20
-62.75826023222061
 30
0.0
  0
SEQEND
  8
0
  0
POLYLINE
  8
0
 62
0
 70
0
 66
1
 10
0.0
 20
0.0
 30
0.0
  0
VERTEX
  8
0
 10
187.42901378602582
 20
-62.75826023222061
 30
0.0
  0
VERTEX
  8
0
 10
192.14134561275978
 20
-62.75826023222061
 30
0.0
  0
VERTEX
  8
0
 10
196.8536774394937
 20
-62.75826023222061
 30
0.0
  0
VERTEX
  8
0
 10
201.56600926622764
 20
-62.75826023222061
 30
0.0
  0
VERTEX
  8
0
 10
206.2783410929616
 20
-62.75826023222061
 30
0.0
  0
SEQEND
  8
0
  0
POLYLINE
  8
0
 62
0
 70
0
 66
1
 10
0.0
 20
0.0
 30
0.0
  0
VERTEX
  8
0
 10
206.2783410929616
 20
-62.75826023222061
 30
0.0
  0
VERTEX
  8
0
 10
206.2783410929616
 20
-59.15908365989356
 30
0.0
  0
SEQEND
  8
0
  0
POLYLINE
  8
0
 62
0
 70
0
 66
1
 10
0.0
 20
0.0
 30
0.0
  0
VERTEX
  8
0
 10
206.2783410929616
 20
-59.15908365989356
 30
0.0
  0
VERTEX
  8
0
 10
201.56600926622764
 20
-59.15908365989356
 30
0.0
  0
VERTEX
  8
0
 10
196.8536774394937
 20
-59.15908365989356
 30
0.0
  0
VERTEX
  8
0
 10
192.14134561275978
 20
-59.15908365989356
 30
0.0
  0
VERTEX
  8
0
 10
187.42901378602582
 20
-59.15908365989356
 30
0.0
  0
SEQEND
  8
0
  0
POLYLINE
  8
0
 62
0
 70
0
 66
1
 10
0.0
 20
0.0
 30
0.0
  0
VERTEX
  8
0
 10
185.98883475583682
 20
-59.054943759071115
 30
0.0
  0
VERTEX
  8
0
 10
181.69674564611304
 20
-59.054943759071115
 30
0.0
  0
VERTEX
  8
0
 10
177.4046565363893
 20
-59.054943759071115
 30
0.0
  0
VERTEX
  8
0
 10
173.11256742666552
 20
-59.054943759071115
 30
0.0
  0
VERTEX
  8
0
 10
168.82047831694177
 20
-59.054943759071115
 30
0.0
  0
VERTEX
  8
0
 10
164.528389207218
 20
-59.054943759071115
 30
0.0
  0
SEQEND
  8
0
  0
POLYLINE
  8
0
 62
0
 70
0
 66
1
 10
0.0
 20
0.0
 30
0.0
  0
VERTEX
  8
0
 10
164.528389207218
 20
-59.054943759071115
 30
0.0
  0
VERTEX
  8
0
 10
164.528389207218
 20
-62.864940130624085
 30
0.0
  0
VERTEX
  8
0
 10
164.528389207218
 20
-66.67493650217706
 30
0.0
  0
VERTEX
  8
0
 10
164.528389207218
 20
-70.48493287373003
 30
0.0
  0
SEQEND
  8
0
  0
POLYLINE
  8
0
 62
0
 70
0
 66
1
 10
0.0
 20
0.0
 30
0.0
  0
VERTEX
  8
0
 10
164.528389207218
 20
-70.48493287373003
 30
0.0
  0
VERTEX
  8
0
 10
168.82047831694177
 20
-70.48493287373003
 30
0.0
  0
VERTEX
  8
0
 10
173.11256742666552
 20
-70.48493287373003
 30
0.0
  0
VERTEX
  8
0
 10
177.4046565363893
 20
-70.48493287373003
 30
0.0
  0
VERTEX
  8
0
 10
181.69674564611304
 20
-70.48493287373003
 30
0.0
  0
VERTEX
  8
0
 10
185.98883475583682
 20
-70.48493287373003
 30
0.0
  0
SEQEND
  8
0
  0
POLYLINE
  8
0
 62
0
 70
0
 66
1
 10
0.0
 20
0.0
 30
0.0
  0
VERTEX
  8
0
 10
185.98883475583682
 20
-70.48493287373003
 30
0.0
  0
VERTEX
  8
0
 10
185.98883475583682
 20
-66.67493650217706
 30
0.0
  0
VERTEX
  8
0
 10
185.98883475583682
 20
-62.864940130624085
 30
0.0
  0
VERTEX
  8
0
 10
185.98883475583682
 20
-59.054943759071115
 30
0.0
  0
SEQEND
  8
0
  0
POLYLINE
  8
0
 62
0
 70
0
 66
1
 10
0.0
 20
0.0
 30
0.0
  0
VERTEX
  8
0
 10
164.39884929444966
 20
-70.48493287373003
 30
0.0
  0
VERTEX
  8
0
 10
164.39884929444966
 20
-66.67493650217706
 30
0.0
  0
VERTEX
  8
0
 10
164.39884929444966
 20
-62.864940130624085
 30
0.0
  0
VERTEX
  8
0
 10
164.39884929444966
 20
-59.054943759071115
 30
0.0
  0
SEQEND
  8
0
  0
POLYLINE
  8
0
 62
0
 70
0
 66
1
 10
0.0
 20
0.0
 30
0.0
  0
VERTEX
  8
0
 10
164.39884929444966
 20
-59.054943759071115
 30
0.0
  0
VERTEX
  8
0
 10
160.10676018472589
 20
-59.054943759071115
 30
0.0
  0
VERTEX
  8
0
 10
155.81467107500214
 20
-59.054943759071115
 30
0.0
  0
VERTEX
  8
0
 10
151.52258196527836
 20
-59.054943759071115
 30
0.0
  0
VERTEX
  8
0
 10
147.23049285555462
 20
-59.054943759071115
 30
0.0
  0
VERTEX
  8
0
 10
142.93840374583084
 20
-59.054943759071115
 30
0.0
  0
SEQEND
  8
0
  0
POLYLINE
  8
0
 62
0
 70
0
 66
1
 10
0.0
 20
0.0
 30
0.0
  0
VERTEX
  8
0
 10
142.93840374583084
 20
-59.054943759071115
 30
0.0
  0
VERTEX
  8
0
 10
142.93840374583084
 20
-62.864940130624085
 30
0.0
  0
VERTEX
  8
0
 10
142.93840374583084
 20
-66.67493650217706
 30
0.0
  0
VERTEX
  8
0
 10
142.93840374583084
 20
-70.48493287373003
 30
0.0
  0
SEQEND
  8
0
  0
POLYLINE
  8
0
 62
0
 70
0
 66
1
 10
0.0
 20
0.0
 30
0.0
  0
VERTEX
  8
0
 10
142.93840374583084
 20
-70.48493287373003
 30
0.0
  0
VERTEX
  8
0
 10
147.23049285555462
 20
-70.48493287373003
 30
0.0
  0
VERTEX
  8
0
 10
151.52258196527836
 20
-70.48493287373003
 30
0.0
  0
VERTEX
  8
0
 10
155.81467107500214
 20
-70.48493287373003
 30
0.0
  0
VERTEX
  8
0
 10
160.10676018472589
 20
-70.48493287373003
 30
0.0
  0
VERTEX
  8
0
 10
164.39884929444966
 20
-70.48493287373003
 30
0.0
  0
SEQEND
  8
0
  0
POLYLINE
  8
0
 62
0
 70
0
 66
1
 10
0.0
 20
0.0
 30
0.0
  0
VERTEX
  8
0
 10
80.70844565124433
 20
-59.054943759071115
 30
0.0
  0
VERTEX
  8
0
 10
80.70844565124433
 20
-62.864940130624085
 30
0.0
  0
VERTEX
  8
0
 10
80.70844565124433
 20
-66.67493650217706
 30
0.0
  0
VERTEX
  8
0
 10
80.70844565124433
 20
-70.48493287373003
 30
0.0
  0
SEQEND
  8
0
  0
POLYLINE
  8
0
 62
0
 70
0
 66
1
 10
0.0
 20
0.0
 30
0.0
  0
VERTEX
  8
0
 10
80.70844565124433
 20
-70.48493287373003
 30
0.0
  0
VERTEX
  8
0
 10
85.0005347609681
 20
-70.48493287373003
 30
0.0
  0
VERTEX
  8
0
 10
89.29262387069187
 20
-70.48493287373003
 30
0.0
  0
VERTEX
  8
0
 10
93.58471298041563
 20
-70.48493287373003
 30
0.0
  0
VERTEX
  8
0
 10
97.87680209013939
 20
-70.48493287373003
 30
0.0
  0
VERTEX
  8
0
 10
102.16889119986317
 20
-70.48493287373003
 30
0.0
  0
SEQEND
  8
0
  0
POLYLINE
  8
0
 62
0
 70
0
 66
1
 10
0.0
 20
0.0
 30
0.0
  0
VERTEX
  8
0
 10
102.16889119986317
 20
-70.48493287373003
 30
0.0
  0
VERTEX
  8
0
 10
102.16889119986317
 20
-66.67493650217706
 30
0.0
  0
VERTEX
  8
0
 10
102.16889119986317
 20
-62.864940130624085
 30
0.0
  0
VERTEX
  8
0
 10
102.16889119986317
 20
-59.054943759071115
 30
0.0
  0
SEQEND
  8
0
  0
POLYLINE
  8
0
 62
0
 70
0
 66
1
 10
0.0
 20
0.0
 30
0.0
  0
VERTEX
  8
0
 10
102.16889119986317
 20
-59.054943759071115
 30
0.0
  0
VERTEX
  8
0
 10
97.8768020901394
 20
-59.054943759071115
 30
0.0
  0
VERTEX
  8
0
 10
93.58471298041563
 20
-59.054943759071115
 30
0.0
  0
VERTEX
  8
0
 10
89.29262387069187
 20
-59.054943759071115
 30
0.0
  0
VERTEX
  8
0
 10
85.0005347609681
 20
-59.054943759071115
 30
0.0
  0
VERTEX
  8
0
 10
80.70844565124433
 20
-59.054943759071115
 30
0.0
  0
SEQEND
  8
0
  0
POLYLINE
  8
0
 62
0
 70
0
 66
1
 10
0.0
 20
0.0
 30
0.0
  0
VERTEX
  8
0
 10
140.36792547678098
 20
-69.44353386550556
 30
0.0
  0
VERTEX
  8
0
 10
140.6193853074489
 20
-69.44353386550556
 30
0.0
  0
SEQEND
  8
0
  0
POLYLINE
  8
0
 62
0
 70
0
 66
1
 10
0.0
 20
0.0
 30
0.0
  0
VERTEX
  8
0
 10
140.6193853074489
 20
-69.44353386550556
 30
0.0
  0
VERTEX
  8
0
 10
140.6193853074489
 20
-69.1946141025641
 30
0.0
  0
SEQEND
  8
0
  0
POLYLINE
  8
0
 62
0
 70
0
 66
1
 10
0.0
 20
0.0
 30
0.0
  0
VERTEX
  8
0
 10
140.6193853074489
 20
-60.19286267537493
 30
0.0
  0
VERTEX
  8
0
 10
140.6193853074489
 20
-64.69373838896952
 30
0.0
  0
VERTEX
  8
0
 10
140.6193853074489
 20
-69.1946141025641
 30
0.0
  0
SEQEND
  8
0
  0
POLYLINE
  8
0
 62
0
 70
0
 66
1
 10
0.0
 20
0.0
 30
0.0
  0
VERTEX
  8
0
 10
140.6193853074489
 20
-60.19286267537493
 30
0.0
  0
VERTEX
  8
0
 10
140.6193853074489
 20
-59.94394291243347
 30
0.0
  0
SEQEND
  8
0
  0
POLYLINE
  8
0
 62
0
 70
0
 66
1
 10
0.0
 20
0.0
 30
0.0
  0
VERTEX
  8
0
 10
140.6193853074489
 20
-59.94394291243347
 30
0.0
  0
VERTEX
  8
0
 10
140.36792547678098
 20
-59.94394291243347
 30
0.0
  0
SEQEND
  8
0
  0
POLYLINE
  8
0
 62
0
 70
0
 66
1
 10
0.0
 20
0.0
 30
0.0
  0
VERTEX
  8
0
 10
133.36769019071238
 20
-59.94394291243347
 30
0.0
  0
VERTEX
  8
0
 10
136.86780783374667
 20
-59.94394291243347
 30
0.0
  0
VERTEX
  8
0
 10
140.36792547678098
 20
-59.94394291243347
 30
0.0
  0
SEQEND
  8
0
  0
POLYLINE
  8
0
 62
0
 70
0
 66
1
 10
0.0
 20
0.0
 30
0.0
  0
VERTEX
  8
0
 10
133.11877035833405
 20
-59.94394291243347
 30
0.0
  0
VERTEX
  8
0
 10
133.36769019071238
 20
-59.94394291243347
 30
0.0
  0
SEQEND
  8
0
  0
POLYLINE
  8
0
 62
0
 70
0
 66
1
 10
0.0
 20
0.0
 30
0.0
  0
VERTEX
  8
0
 10
133.11877035833405
 20
-60.19286267537493
 30
0.0
  0
VERTEX
  8
0
 10
133.11877035833405
 20
-59.94394291243347
 30
0.0
  0
SEQEND
  8
0
  0
POLYLINE
  8
0
 62
0
 70
0
 66
1
 10
0.0
 20
0.0
 30
0.0
  0
VERTEX
  8
0
 10
133.11877035833405
 20
-69.1946141025641
 30
0.0
  0
VERTEX
  8
0
 10
133.11877035833405
 20
-64.69373838896952
 30
0.0
  0
VERTEX
  8
0
 10
133.11877035833405
 20
-60.19286267537493
 30
0.0
  0
SEQEND
  8
0
  0
POLYLINE
  8
0
 62
0
 70
0
 66
1
 10
0.0
 20
0.0
 30
0.0
  0
VERTEX
  8
0
 10
133.11877035833405
 20
-69.44353386550556
 30
0.0
  0
VERTEX
  8
0
 10
133.11877035833405
 20
-69.1946141025641
 30
0.0
  0
SEQEND
  8
0
  0
POLYLINE
  8
0
 62
0
 70
0
 66
1
 10
0.0
 20
0.0
 30
0.0
  0
VERTEX
  8
0
 10
133.36769019071238
 20
-69.44353386550556
 30
0.0
  0
VERTEX
  8
0
 10
133.11877035833405
 20
-69.44353386550556
 30
0.0
  0
SEQEND
  8
0
  0
POLYLINE
  8
0
 62
0
 70
0
 66
1
 10
0.0
 20
0.0
 30
0.0
  0
VERTEX
  8
0
 10
140.36792547678098
 20
-69.44353386550556
 30
0.0
  0
VERTEX
  8
0
 10
136.86780783374667
 20
-69.44353386550556
 30
0.0
  0
VERTEX
  8
0
 10
133.36769019071238
 20
-69.44353386550556
 30
0.0
  0
SEQEND
  8
0
  0
POLYLINE
  8
0
 62
0
 70
0
 66
1
 10
0.0
 20
0.0
 30
0.0
  0
VERTEX
  8
0
 10
123.75887666125033
 20
-70.48493287373003
 30
0.0
  0
VERTEX
  8
0
 10
123.75887666125033
 20
-66.67493650217706
 30
0.0
  0
VERTEX
  8
0
 10
123.75887666125033
 20
-62.864940130624085
 30
0.0
  0
VERTEX
  8
0
 10
123.75887666125033
 20
-59.054943759071115
 30
0.0
  0
SEQEND
  8
0
  0
POLYLINE
  8
0
 62
0
 70
0
 66
1
 10
0.0
 20
0.0
 30
0.0
  0
VERTEX
  8
0
 10
123.75887666125033
 20
-59.054943759071115
 30
0.0
  0
VERTEX
  8
0
 10
119.46678755152656
 20
-59.054943759071115
 30
0.0
  0
VERTEX
  8
0
 10
115.17469844180279
 20
-59.054943759071115
 30
0.0
  0
VERTEX
  8
0
 10
110.88260933207903
 20
-59.054943759071115
 30
0.0
  0
VERTEX
  8
0
 10
106.59052022235525
 20
-59.054943759071115
 30
0.0
  0
VERTEX
  8
0
 10
102.29843111263149
 20
-59.054943759071115
 30
0.0
  0
SEQEND
  8
0
  0
POLYLINE
  8
0
 62
0
 70
0
 66
1
 10
0.0
 20
0.0
 30
0.0
  0
VERTEX
  8
0
 10
102.29843111263149
 20
-59.054943759071115
 30
0.0
  0
VERTEX
  8
0
 10
102.29843111263149
 20
-62.864940130624085
 30
0.0
  0
VERTEX
  8
0
 10
102.29843111263149
 20
-66.67493650217706
 30
0.0
  0
VERTEX
  8
0
 10
102.29843111263149
 20
-70.48493287373003
 30
0.0
  0
SEQEND
  8
0
  0
POLYLINE
  8
0
 62
0
 70
0
 66
1
 10
0.0
 20
0.0
 30
0.0
  0
VERTEX
  8
0
 10
102.29843111263149
 20
-70.48493287373003
 30
0.0
  0
VERTEX
  8
0
 10
106.59052022235525
 20
-70.48493287373003
 30
0.0
  0
VERTEX
  8
0
 10
110.88260933207903
 20
-70.48493287373003
 30
0.0
  0
VERTEX
  8
0
 10
115.17469844180279
 20
-70.48493287373003
 30
0.0
  0
VERTEX
  8
0
 10
119.46678755152655
 20
-70.48493287373003
 30
0.0
  0
VERTEX
  8
0
 10
123.75887666125033
 20
-70.48493287373003
 30
0.0
  0
SEQEND
  8
0
  0
POLYLINE
  8
0
 62
0
 70
0
 66
1
 10
0.0
 20
0.0
 30
0.0
  0
VERTEX
  8
0
 10
187.42901378602582
 20
-82.01906188921141
 30
0.0
  0
VERTEX
  8
0
 10
187.42901378602582
 20
-85.61823846153845
 30
0.0
  0
SEQEND
  8
0
  0
POLYLINE
  8
0
 62
0
 70
0
 66
1
 10
0.0
 20
0.0
 30
0.0
  0
VERTEX
  8
0
 10
187.42901378602582
 20
-85.61823846153845
 30
0.0
  0
VERTEX
  8
0
 10
192.14134561275978
 20
-85.61823846153845
 30
0.0
  0
VERTEX
  8
0
 10
196.8536774394937
 20
-85.61823846153845
 30
0.0
  0
VERTEX
  8
0
 10
201.56600926622764
 20
-85.61823846153845
 30
0.0
  0
VERTEX
  8
0
 10
206.2783410929616
 20
-85.61823846153845
 30
0.0
  0
SEQEND
  8
0
  0
POLYLINE
  8
0
 62
0
 70
0
 66
1
 10
0.0
 20
0.0
 30
0.0
  0
VERTEX
  8
0
 10
206.2783410929616
 20
-85.61823846153845
 30
0.0
  0
VERTEX
  8
0
 10
206.2783410929616
 20
-82.01906188921141
 30
0.0
  0
SEQEND
  8
0
  0
POLYLINE
  8
0
 62
0
 70
0
 66
1
 10
0.0
 20
0.0
 30
0.0
  0
VERTEX
  8
0
 10
206.2783410929616
 20
-82.01906188921141
 30
0.0
  0
VERTEX
  8
0
 10
201.56600926622764
 20
-82.01906188921141
 30
0.0
  0
VERTEX
  8
0
 10
196.8536774394937
 20
-82.01906188921141
 30
0.0
  0
VERTEX
  8
0
 10
192.14134561275978
 20
-82.01906188921141
 30
0.0
  0
VERTEX
  8
0
 10
187.42901378602582
 20
-82.01906188921141
 30
0.0
  0
SEQEND
  8
0
  0
POLYLINE
  8
0
 62
0
 70
0
 66
1
 10
0.0
 20
0.0
 30
0.0
  0
VERTEX
  8
0
 10
78.13796738219447
 20
-92.3035120948234
 30
0.0
  0
VERTEX
  8
0
 10
78.3894272128624
 20
-92.3035120948234
 30
0.0
  0
SEQEND
  8
0
  0
POLYLINE
  8
0
 62
0
 70
0
 66
1
 10
0.0
 20
0.0
 30
0.0
  0
VERTEX
  8
0
 10
78.3894272128624
 20
-92.3035120948234
 30
0.0
  0
VERTEX
  8
0
 10
78.3894272128624
 20
-92.05459233188195
 30
0.0
  0
SEQEND
  8
0
  0
POLYLINE
  8
0
 62
0
 70
0
 66
1
 10
0.0
 20
0.0
 30
0.0
  0
VERTEX
  8
0
 10
78.3894272128624
 20
-83.05284090469279
 30
0.0
  0
VERTEX
  8
0
 10
78.3894272128624
 20
-87.55371661828737
 30
0.0
  0
VERTEX
  8
0
 10
78.3894272128624
 20
-92.05459233188195
 30
0.0
  0
SEQEND
  8
0
  0
POLYLINE
  8
0
 62
0
 70
0
 66
1
 10
0.0
 20
0.0
 30
0.0
  0
VERTEX
  8
0
 10
78.3894272128624
 20
-83.05284090469279
 30
0.0
  0
VERTEX
  8
0
 10
78.3894272128624
 20
-82.80392114175132
 30
0.0
  0
SEQEND
  8
0
  0
POLYLINE
  8
0
 62
0
 70
0
 66
1
 10
0.0
 20
0.0
 30
0.0
  0
VERTEX
  8
0
 10
78.3894272128624
 20
-82.80392114175132
 30
0.0
  0
VERTEX
  8
0
 10
78.13796738219447
 20
-82.80392114175132
 30
0.0
  0
SEQEND
  8
0
  0
POLYLINE
  8
0
 62
0
 70
0
 66
1
 10
0.0
 20
0.0
 30
0.0
  0
VERTEX
  8
0
 10
71.13773209612589
 20
-82.80392114175132
 30
0.0
  0
VERTEX
  8
0
 10
74.63784973916017
 20
-82.80392114175132
 30
0.0
  0
VERTEX
  8
0
 10
78.13796738219447
 20
-82.80392114175132
 30
0.0
  0
SEQEND
  8
0
  0
POLYLINE
  8
0
 62
0
 70
0
 66
1
 10
0.0
 20
0.0
 30
0.0
  0
VERTEX
  8
0
 10
70.88881226374754
 20
-82.80392114175132
 30
0.0
  0
VERTEX
  8
0
 10
71.13773209612589
 20
-82.80392114175132
 30
0.0
  0
SEQEND
  8
0
  0
POLYLINE
  8
0
 62
0
 70
0
 66
1
 10
0.0
 20
0.0
 30
0.0
  0
VERTEX
  8
0
 10
70.88881226374754
 20
-83.05284090469279
 30
0.0
  0
VERTEX
  8
0
 10
70.88881226374754
 20
-82.80392114175132
 30
0.0
  0
SEQEND
  8
0
  0
POLYLINE
  8
0
 62
0
 70
0
 66
1
 10
0.0
 20
0.0
 30
0.0
  0
VERTEX
  8
0
 10
70.88881226374754
 20
-92.05459233188195
 30
0.0
  0
VERTEX
  8
0
 10
70.88881226374754
 20
-87.55371661828737
 30
0.0
  0
VERTEX
  8
0
 10
70.88881226374754
 20
-83.05284090469279
 30
0.0
  0
SEQEND
  8
0
  0
POLYLINE
  8
0
 62
0
 70
0
 66
1
 10
0.0
 20
0.0
 30
0.0
  0
VERTEX
  8
0
 10
70.88881226374754
 20
-92.3035120948234
 30
0.0
  0
VERTEX
  8
0
 10
70.88881226374754
 20
-92.05459233188195
 30
0.0
  0
SEQEND
  8
0
  0
POLYLINE
  8
0
 62
0
 70
0
 66
1
 10
0.0
 20
0.0
 30
0.0
  0
VERTEX
  8
0
 10
71.13773209612589
 20
-92.3035120948234
 30
0.0
  0
VERTEX
  8
0
 10
70.88881226374754
 20
-92.3035120948234
 30
0.0
  0
SEQEND
  8
0
  0
POLYLINE
  8
0
 62
0
 70
0
 66
1
 10
0.0
 20
0.0
 30
0.0
  0
VERTEX
  8
0
 10
78.13796738219447
 20
-92.3035120948234
 30
0.0
  0
VERTEX
  8
0
 10
74.63784973916019
 20
-92.3035120948234
 30
0.0
  0
VERTEX
  8
0
 10
71.13773209612589
 20
-92.3035120948234
 30
0.0
  0
SEQEND
  8
0
  0
POLYLINE
  8
0
 62
0
 70
0
 66
1
 10
0.0
 20
0.0
 30
0.0
  0
VERTEX
  8
0
 10
80.70844565124433
 20
-81.91492198838897
 30
0.0
  0
VERTEX
  8
0
 10
80.70844565124433
 20
-85.72491835994194
 30
0.0
  0
VERTEX
  8
0
 10
80.70844565124433
 20
-89.53491473149492
 30
0.0
  0
VERTEX
  8
0
 10
80.70844565124433
 20
-93.34491110304789
 30
0.0
  0
SEQEND
  8
0
  0
POLYLINE
  8
0
 62
0
 70
0
 66
1
 10
0.0
 20
0.0
 30
0.0
  0
VERTEX
  8
0
 10
80.70844565124433
 20
-93.34491110304789
 30
0.0
  0
VERTEX
  8
0
 10
85.0005347609681
 20
-93.34491110304789
 30
0.0
  0
VERTEX
  8
0
 10
89.29262387069187
 20
-93.34491110304789
 30
0.0
  0
VERTEX
  8
0
 10
93.58471298041563
 20
-93.34491110304789
 30
0.0
  0
VERTEX
  8
0
 10
97.87680209013939
 20
-93.34491110304789
 30
0.0
  0
VERTEX
  8
0
 10
102.16889119986317
 20
-93.34491110304789
 30
0.0
  0
SEQEND
  8
0
  0
POLYLINE
  8
0
 62
0
 70
0
 66
1
 10
0.0
 20
0.0
 30
0.0
  0
VERTEX
  8
0
 10
102.16889119986317
 20
-93.34491110304789
 30
0.0
  0
VERTEX
  8
0
 10
102.16889119986317
 20
-89.53491473149492
 30
0.0
  0
VERTEX
  8
0
 10
102.16889119986317
 20
-85.72491835994194
 30
0.0
  0
VERTEX
  8
0
 10
102.16889119986317
 20
-81.91492198838897
 30
0.0
  0
SEQEND
  8
0
  0
POLYLINE
  8
0
 62
0
 70
0
 66
1
 10
0.0
 20
0.0
 30
0.0
  0
VERTEX
  8
0
 10
102.16889119986317
 20
-81.91492198838897
 30
0.0
  0
VERTEX
  8
0
 10
97.8768020901394
 20
-81.91492198838897
 30
0.0
  0
VERTEX
  8
0
 10
93.58471298041563
 20
-81.91492198838897
 30
0.0
  0
VERTEX
  8
0
 10
89.29262387069187
 20
-81.91492198838897
 30
0.0
  0
VERTEX
  8
0
 10
85.0005347609681
 20
-81.91492198838897
 30
0.0
  0
VERTEX
  8
0
 10
80.70844565124433
 20
-81.91492198838897
 30
0.0
  0
SEQEND
  8
0
  0
POLYLINE
  8
0
 62
0
 70
0
 66
1
 10
0.0
 20
0.0
 30
0.0
  0
VERTEX
  8
0
 10
123.75887666125033
 20
-93.34491110304789
 30
0.0
  0
VERTEX
  8
0
 10
123.75887666125033
 20
-89.53491473149492
 30
0.0
  0
VERTEX
  8
0
 10
123.75887666125033
 20
-85.72491835994194
 30
0.0
  0
VERTEX
  8
0
 10
123.75887666125033
 20
-81.91492198838897
 30
0.0
  0
SEQEND
  8
0
  0
POLYLINE
  8
0
 62
0
 70
0
 66
1
 10
0.0
 20
0.0
 30
0.0
  0
VERTEX
  8
0
 10
123.75887666125033
 20
-81.91492198838897
 30
0.0
  0
VERTEX
  8
0
 10
119.46678755152656
 20
-81.91492198838897
 30
0.0
  0
VERTEX
  8
0
 10
115.17469844180279
 20
-81.91492198838897
 30
0.0
  0
VERTEX
  8
0
 10
110.88260933207903
 20
-81.91492198838897
 30
0.0
  0
VERTEX
  8
0
 10
106.59052022235525
 20
-81.91492198838897
 30
0.0
  0
VERTEX
  8
0
 10
102.29843111263149
 20
-81.91492198838897
 30
0.0
  0
SEQEND
  8
0
  0
POLYLINE
  8
0
 62
0
 70
0
 66
1
 10
0.0
 20
0.0
 30
0.0
  0
VERTEX
  8
0
 10
102.29843111263149
 20
-81.91492198838897
 30
0.0
  0
VERTEX
  8
0
 10
102.29843111263149
 20
-85.72491835994194
 30
0.0
  0
VERTEX
  8
0
 10
102.29843111263149
 20
-89.53491473149492
 30
0.0
  0
VERTEX
  8
0
 10
102.29843111263149
 20
-93.34491110304789
 30
0.0
  0
SEQEND
  8
0
  0
POLYLINE
  8
0
 62
0
 70
0
 66
1
 10
0.0
 20
0.0
 30
0.0
  0
VERTEX
  8
0
 10
102.29843111263149
 20
-93.34491110304789
 30
0.0
  0
VERTEX
  8
0
 10
106.59052022235525
 20
-93.34491110304789
 30
0.0
  0
VERTEX
  8
0
 10
110.88260933207903
 20
-93.34491110304789
 30
0.0
  0
VERTEX
  8
0
 10
115.17469844180279
 20
-93.34491110304789
 30
0.0
  0
VERTEX
  8
0
 10
119.46678755152655
 20
-93.34491110304789
 30
0.0
  0
VERTEX
  8
0
 10
123.75887666125033
 20
-93.34491110304789
 30
0.0
  0
SEQEND
  8
0
  0
POLYLINE
  8
0
 62
0
 70
0
 66
1
 10
0.0
 20
0.0
 30
0.0
  0
VERTEX
  8
0
 10
140.36792547678098
 20
-92.3035120948234
 30
0.0
  0
VERTEX
  8
0
 10
140.6193853074489
 20
-92.3035120948234
 30
0.0
  0
SEQEND
  8
0
  0
POLYLINE
  8
0
 62
0
 70
0
 66
1
 10
0.0
 20
0.0
 30
0.0
  0
VERTEX
  8
0
 10
140.6193853074489
 20
-92.3035120948234
 30
0.0
  0
VERTEX
  8
0
 10
140.6193853074489
 20
-92.05459233188195
 30
0.0
  0
SEQEND
  8
0
  0
POLYLINE
  8
0
 62
0
 70
0
 66
1
 10
0.0
 20
0.0
 30
0.0
  0
VERTEX
  8
0
 10
140.6193853074489
 20
-83.05284090469279
 30
0.0
  0
VERTEX
  8
0
 10
140.6193853074489
 20
-87.55371661828737
 30
0.0
  0
VERTEX
  8
0
 10
140.6193853074489
 20
-92.05459233188195
 30
0.0
  0
SEQEND
  8
0
  0
POLYLINE
  8
0
 62
0
 70
0
 66
1
 10
0.0
 20
0.0
 30
0.0
  0
VERTEX
  8
0
 10
140.6193853074489
 20
-83.05284090469279
 30
0.0
  0
VERTEX
  8
0
 10
140.6193853074489
 20
-82.80392114175132
 30
0.0
  0
SEQEND
  8
0
  0
POLYLINE
  8
0
 62
0
 70
0
 66
1
 10
0.0
 20
0.0
 30
0.0
  0
VERTEX
  8
0
 10
140.6193853074489
 20
-82.80392114175132
 30
0.0
  0
VERTEX
  8
0
 10
140.36792547678098
 20
-82.80392114175132
 30
0.0
  0
SEQEND
  8
0
  0
POLYLINE
  8
0
 62
0
 70
0
 66
1
 10
0.0
 20
0.0
 30
0.0
  0
VERTEX
  8
0
 10
133.36769019071238
 20
-82.80392114175132
 30
0.0
  0
VERTEX
  8
0
 10
136.86780783374667
 20
-82.80392114175132
 30
0.0
  0
VERTEX
  8
0
 10
140.36792547678098
 20
-82.80392114175132
 30
0.0
  0
SEQEND
  8
0
  0
POLYLINE
  8
0
 62
0
 70
0
 66
1
 10
0.0
 20
0.0
 30
0.0
  0
VERTEX
  8
0
 10
133.11877035833405
 20
-82.80392114175132
 30
0.0
  0
VERTEX
  8
0
 10
133.36769019071238
 20
-82.80392114175132
 30
0.0
  0
SEQEND
  8
0
  0
POLYLINE
  8
0
 62
0
 70
0
 66
1
 10
0.0
 20
0.0
 30
0.0
  0
VERTEX
  8
0
 10
133.11877035833405
 20
-83.05284090469279
 30
0.0
  0
VERTEX
  8
0
 10
133.11877035833405
 20
-82.80392114175132
 30
0.0
  0
SEQEND
  8
0
  0
POLYLINE
  8
0
 62
0
 70
0
 66
1
 10
0.0
 20
0.0
 30
0.0
  0
VERTEX
  8
0
 10
133.11877035833405
 20
-92.05459233188195
 30
0.0
  0
VERTEX
  8
0
 10
133.11877035833405
 20
-87.55371661828737
 30
0.0
  0
VERTEX
  8
0
 10
133.11877035833405
 20
-83.05284090469279
 30
0.0
  0
SEQEND
  8
0
  0
POLYLINE
  8
0
 62
0
 70
0
 66
1
 10
0.0
 20
0.0
 30
0.0
  0
VERTEX
  8
0
 10
133.11877035833405
 20
-92.3035120948234
 30
0.0
  0
VERTEX
  8
0
 10
133.11877035833405
 20
-92.05459233188195
 30
0.0
  0
SEQEND
  8
0
  0
POLYLINE
  8
0
 62
0
 70
0
 66
1
 10
0.0
 20
0.0
 30
0.0
  0
VERTEX
  8
0
 10
133.36769019071238
 20
-92.3035120948234
 30
0.0
  0
VERTEX
  8
0
 10
133.11877035833405
 20
-92.3035120948234
 30
0.0
  0
SEQEND
  8
0
  0
POLYLINE
  8
0
 62
0
 70
0
 66
1
 10
0.0
 20
0.0
 30
0.0
  0
VERTEX
  8
0
 10
140.36792547678098
 20
-92.3035120948234
 30
0.0
  0
VERTEX
  8
0
 10
136.86780783374667
 20
-92.3035120948234
 30
0.0
  0
VERTEX
  8
0
 10
133.36769019071238
 20
-92.3035120948234
 30
0.0
  0
SEQEND
  8
0
  0
POLYLINE
  8
0
 62
0
 70
0
 66
1
 10
0.0
 20
0.0
 30
0.0
  0
VERTEX
  8
0
 10
164.39884929444966
 20
-81.91492198838897
 30
0.0
  0
VERTEX
  8
0
 10
160.10676018472589
 20
-81.91492198838897
 30
0.0
  0
VERTEX
  8
0
 10
155.81467107500214
 20
-81.91492198838897
 30
0.0
  0
VERTEX
  8
0
 10
151.52258196527836
 20
-81.91492198838897
 30
0.0
  0
VERTEX
  8
0
 10
147.23049285555462
 20
-81.91492198838897
 30
0.0
  0
VERTEX
  8
0
 10
142.93840374583084
 20
-81.91492198838897
 30
0.0
  0
SEQEND
  8
0
  0
POLYLINE
  8
0
 62
0
 70
0
 66
1
 10
0.0
 20
0.0
 30
0.0
  0
VERTEX
  8
0
 10
142.93840374583084
 20
-81.91492198838897
 30
0.0
  0
VERTEX
  8
0
 10
142.93840374583084
 20
-85.72491835994194
 30
0.0
  0
VERTEX
  8
0
 10
142.93840374583084
 20
-89.53491473149492
 30
0.0
  0
VERTEX
  8
0
 10
142.93840374583084
 20
-93.34491110304789
 30
0.0
  0
SEQEND
  8
0
  0
POLYLINE
  8
0
 62
0
 70
0
 66
1
 10
0.0
 20
0.0
 30
0.0
  0
VERTEX
  8
0
 10
142.93840374583084
 20
-93.34491110304789
 30
0.0
  0
VERTEX
  8
0
 10
147.23049285555462
 20
-93.34491110304789
 30
0.0
  0
VERTEX
  8
0
 10
151.52258196527836
 20
-93.34491110304789
 30
0.0
  0
VERTEX
  8
0
 10
155.81467107500214
 20
-93.34491110304789
 30
0.0
  0
VERTEX
  8
0
 10
160.10676018472589
 20
-93.34491110304789
 30
0.0
  0
VERTEX
  8
0
 10
164.39884929444966
 20
-93.34491110304789
 30
0.0
  0
SEQEND
  8
0
  0
POLYLINE
  8
0
 62
0
 70
0
 66
1
 10
0.0
 20
0.0
 30
0.0
  0
VERTEX
  8
0
 10
164.39884929444966
 20
-93.34491110304789
 30
0.0
  0
VERTEX
  8
0
 10
164.39884929444966
 20
-89.53491473149492
 30
0.0
  0
VERTEX
  8
0
 10
164.39884929444966
 20
-85.72491835994194
 30
0.0
  0
VERTEX
  8
0
 10
164.39884929444966
 20
-81.91492198838897
 30
0.0
  0
SEQEND
  8
0
  0
POLYLINE
  8
0
 62
0
 70
0
 66
1
 10
0.0
 20
0.0
 30
0.0
  0
VERTEX
  8
0
 10
185.98883475583682
 20
-81.91492198838897
 30
0.0
  0
VERTEX
  8
0
 10
181.69674564611304
 20
-81.91492198838897
 30
0.0
  0
VERTEX
  8
0
 10
177.4046565363893
 20
-81.91492198838897
 30
0.0
  0
VERTEX
  8
0
 10
173.11256742666552
 20
-81.91492198838897
 30
0.0
  0
VERTEX
  8
0
 10
168.82047831694177
 20
-81.91492198838897
 30
0.0
  0
VERTEX
  8
0
 10
164.528389207218
 20
-81.91492198838897
 30
0.0
  0
SEQEND
  8
0
  0
POLYLINE
  8
0
 62
0
 70
0
 66
1
 10
0.0
 20
0.0
 30
0.0
  0
VERTEX
  8
0
 10
164.528389207218
 20
-81.91492198838897
 30
0.0
  0
VERTEX
  8
0
 10
164.528389207218
 20
-85.72491835994194
 30
0.0
  0
VERTEX
  8
0
 10
164.528389207218
 20
-89.53491473149492
 30
0.0
  0
VERTEX
  8
0
 10
164.528389207218
 20
-93.34491110304789
 30
0.0
  0
SEQEND
  8
0
  0
POLYLINE
  8
0
 62
0
 70
0
 66
1
 10
0.0
 20
0.0
 30
0.0
  0
VERTEX
  8
0
 10
164.528389207218
 20
-93.34491110304789
 30
0.0
  0
VERTEX
  8
0
 10
168.82047831694177
 20
-93.34491110304789
 30
0.0
  0
VERTEX
  8
0
 10
173.11256742666552
 20
-93.34491110304789
 30
0.0
  0
VERTEX
  8
0
 10
177.4046565363893
 20
-93.34491110304789
 30
0.0
  0
VERTEX
  8
0
 10
181.69674564611304
 20
-93.34491110304789
 30
0.0
  0
VERTEX
  8
0
 10
185.98883475583682
 20
-93.34491110304789
 30
0.0
  0
SEQEND
  8
0
  0
POLYLINE
  8
0
 62
0
 70
0
 66
1
 10
0.0
 20
0.0
 30
0.0
  0
VERTEX
  8
0
 10
185.98883475583682
 20
-93.34491110304789
 30
0.0
  0
VERTEX
  8
0
 10
185.98883475583682
 20
-89.53491473149492
 30
0.0
  0
VERTEX
  8
0
 10
185.98883475583682
 20
-85.72491835994194
 30
0.0
  0
VERTEX
  8
0
 10
185.98883475583682
 20
-81.91492198838897
 30
0.0
  0
SEQEND
  8
0
  0
POLYLINE
  8
0
 62
0
 70
0
 66
1
 10
0.0
 20
0.0
 30
0.0
  0
VERTEX
  8
0
 10
78.3894272128624
 20
-60.19286267537493
 30
0.0
  0
VERTEX
  8
0
 10
78.3894272128624
 20
-59.94394291243347
 30
0.0
  0
SEQEND
  8
0
  0
POLYLINE
  8
0
 62
0
 70
0
 66
1
 10
0.0
 20
0.0
 30
0.0
  0
VERTEX
  8
0
 10
78.3894272128624
 20
-59.94394291243347
 30
0.0
  0
VERTEX
  8
0
 10
78.13796738219447
 20
-59.94394291243347
 30
0.0
  0
SEQEND
  8
0
  0
POLYLINE
  8
0
 62
0
 70
0
 66
1
 10
0.0
 20
0.0
 30
0.0
  0
VERTEX
  8
0
 10
71.13773209612589
 20
-59.94394291243347
 30
0.0
  0
VERTEX
  8
0
 10
74.63784973916017
 20
-59.94394291243347
 30
0.0
  0
VERTEX
  8
0
 10
78.13796738219447
 20
-59.94394291243347
 30
0.0
  0
SEQEND
  8
0
  0
POLYLINE
  8
0
 62
0
 70
0
 66
1
 10
0.0
 20
0.0
 30
0.0
  0
VERTEX
  8
0
 10
70.88881226374754
 20
-59.94394291243347
 30
0.0
  0
VERTEX
  8
0
 10
71.13773209612589
 20
-59.94394291243347
 30
0.0
  0
SEQEND
  8
0
  0
POLYLINE
  8
0
 62
0
 70
0
 66
1
 10
0.0
 20
0.0
 30
0.0
  0
VERTEX
  8
0
 10
70.88881226374754
 20
-60.19286267537493
 30
0.0
  0
VERTEX
  8
0
 10
70.88881226374754
 20
-59.94394291243347
 30
0.0
  0
SEQEND
  8
0
  0
POLYLINE
  8
0
 62
0
 70
0
 66
1
 10
0.0
 20
0.0
 30
0.0
  0
VERTEX
  8
0
 10
70.88881226374754
 20
-69.1946141025641
 30
0.0
  0
VERTEX
  8
0
 10
70.88881226374754
 20
-64.69373838896952
 30
0.0
  0
VERTEX
  8
0
 10
70.88881226374754
 20
-60.19286267537493
 30
0.0
  0
SEQEND
  8
0
  0
POLYLINE
  8
0
 62
0
 70
0
 66
1
 10
0.0
 20
0.0
 30
0.0
  0
VERTEX
  8
0
 10
70.88881226374754
 20
-69.44353386550556
 30
0.0
  0
VERTEX
  8
0
 10
70.88881226374754
 20
-69.1946141025641
 30
0.0
  0
SEQEND
  8
0
  0
POLYLINE
  8
0
 62
0
 70
0
 66
1
 10
0.0
 20
0.0
 30
0.0
  0
VERTEX
  8
0
 10
71.13773209612589
 20
-69.44353386550556
 30
0.0
  0
VERTEX
  8
0
 10
70.88881226374754
 20
-69.44353386550556
 30
0.0
  0
SEQEND
  8
0
  0
POLYLINE
  8
0
 62
0
 70
0
 66
1
 10
0.0
 20
0.0
 30
0.0
  0
VERTEX
  8
0
 10
78.13796738219447
 20
-69.44353386550556
 30
0.0
  0
VERTEX
  8
0
 10
74.63784973916019
 20
-69.44353386550556
 30
0.0
  0
VERTEX
  8
0
 10
71.13773209612589
 20
-69.44353386550556
 30
0.0
  0
SEQEND
  8
0
  0
POLYLINE
  8
0
 62
0
 70
0
 66
1
 10
0.0
 20
0.0
 30
0.0
  0
VERTEX
  8
0
 10
78.13796738219447
 20
-69.44353386550556
 30
0.0
  0
VERTEX
  8
0
 10
78.3894272128624
 20
-69.44353386550556
 30
0.0
  0
SEQEND
  8
0
  0
POLYLINE
  8
0
 62
0
 70
0
 66
1
 10
0.0
 20
0.0
 30
0.0
  0
VERTEX
  8
0
 10
78.3894272128624
 20
-69.44353386550556
 30
0.0
  0
VERTEX
  8
0
 10
78.3894272128624
 20
-69.1946141025641
 30
0.0
  0
SEQEND
  8
0
  0
POLYLINE
  8
0
 62
0
 70
0
 66
1
 10
0.0
 20
0.0
 30
0.0
  0
VERTEX
  8
0
 10
78.3894272128624
 20
-60.19286267537493
 30
0.0
  0
VERTEX
  8
0
 10
78.3894272128624
 20
-64.69373838896952
 30
0.0
  0
VERTEX
  8
0
 10
78.3894272128624
 20
-69.1946141025641
 30
0.0
  0
SEQEND
  8
0
  0
POLYLINE
  8
0
 62
0
 70
0
 66
1
 10
0.0
 20
0.0
 30
0.0
  0
VERTEX
  8
0
 10
140.36792547678098
 20
-46.583555636187704
 30
0.0
  0
VERTEX
  8
0
 10
140.6193853074489
 20
-46.583555636187704
 30
0.0
  0
SEQEND
  8
0
  0
POLYLINE
  8
0
 62
0
 70
0
 66
1
 10
0.0
 20
0.0
 30
0.0
  0
VERTEX
  8
0
 10
140.6193853074489
 20
-46.583555636187704
 30
0.0
  0
VERTEX
  8
0
 10
140.6193853074489
 20
-46.33463587324625
 30
0.0
  0
SEQEND
  8
0
  0
POLYLINE
  8
0
 62
0
 70
0
 66
1
 10
0.0
 20
0.0
 30
0.0
  0
VERTEX
  8
0
 10
140.6193853074489
 20
-37.332884446057086
 30
0.0
  0
VERTEX
  8
0
 10
140.6193853074489
 20
-41.83376015965167
 30
0.0
  0
VERTEX
  8
0
 10
140.6193853074489
 20
-46.33463587324625
 30
0.0
  0
SEQEND
  8
0
  0
POLYLINE
  8
0
 62
0
 70
0
 66
1
 10
0.0
 20
0.0
 30
0.0
  0
VERTEX
  8
0
 10
140.6193853074489
 20
-37.332884446057086
 30
0.0
  0
VERTEX
  8
0
 10
140.6193853074489
 20
-37.083964683115624
 30
0.0
  0
SEQEND
  8
0
  0
POLYLINE
  8
0
 62
0
 70
0
 66
1
 10
0.0
 20
0.0
 30
0.0
  0
VERTEX
  8
0
 10
140.6193853074489
 20
-37.083964683115624
 30
0.0
  0
VERTEX
  8
0
 10
140.36792547678098
 20
-37.083964683115624
 30
0.0
  0
SEQEND
  8
0
  0
POLYLINE
  8
0
 62
0
 70
0
 66
1
 10
0.0
 20
0.0
 30
0.0
  0
VERTEX
  8
0
 10
133.36769019071238
 20
-37.083964683115624
 30
0.0
  0
VERTEX
  8
0
 10
136.86780783374667
 20
-37.083964683115624
 30
0.0
  0
VERTEX
  8
0
 10
140.36792547678098
 20
-37.083964683115624
 30
0.0
  0
SEQEND
  8
0
  0
POLYLINE
  8
0
 62
0
 70
0
 66
1
 10
0.0
 20
0.0
 30
0.0
  0
VERTEX
  8
0
 10
133.11877035833405
 20
-37.083964683115624
 30
0.0
  0
VERTEX
  8
0
 10
133.36769019071238
 20
-37.083964683115624
 30
0.0
  0
SEQEND
  8
0
  0
POLYLINE
  8
0
 62
0
 70
0
 66
1
 10
0.0
 20
0.0
 30
0.0
  0
VERTEX
  8
0
 10
133.11877035833405
 20
-37.332884446057086
 30
0.0
  0
VERTEX
  8
0
 10
133.11877035833405
 20
-37.083964683115624
 30
0.0
  0
SEQEND
  8
0
  0
POLYLINE
  8
0
 62
0
 70
0
 66
1
 10
0.0
 20
0.0
 30
0.0
  0
VERTEX
  8
0
 10
133.11877035833405
 20
-46.33463587324625
 30
0.0
  0
VERTEX
  8
0
 10
133.11877035833405
 20
-41.83376015965167
 30
0.0
  0
VERTEX
  8
0
 10
133.11877035833405
 20
-37.332884446057086
 30
0.0
  0
SEQEND
  8
0
  0
POLYLINE
  8
0
 62
0
 70
0
 66
1
 10
0.0
 20
0.0
 30
0.0
  0
VERTEX
  8
0
 10
133.11877035833405
 20
-46.583555636187704
 30
0.0
  0
VERTEX
  8
0
 10
133.11877035833405
 20
-46.33463587324625
 30
0.0
  0
SEQEND
  8
0
  0
POLYLINE
  8
0
 62
0
 70
0
 66
1
 10
0.0
 20
0.0
 30
0.0
  0
VERTEX
  8
0
 10
133.36769019071238
 20
-46.583555636187704
 30
0.0
  0
VERTEX
  8
0
 10
133.11877035833405
 20
-46.583555636187704
 30
0.0
  0
SEQEND
  8
0
  0
POLYLINE
  8
0
 62
0
 70
0
 66
1
 10
0.0
 20
0.0
 30
0.0
  0
VERTEX
  8
0
 10
140.36792547678098
 20
-46.583555636187704
 30
0.0
  0
VERTEX
  8
0
 10
136.86780783374667
 20
-46.583555636187704
 30
0.0
  0
VERTEX
  8
0
 10
133.36769019071238
 20
-46.583555636187704
 30
0.0
  0
SEQEND
  8
0
  0
POLYLINE
  8
0
 62
0
 70
0
 66
1
 10
0.0
 20
0.0
 30
0.0
  0
VERTEX
  8
0
 10
142.93840374583084
 20
-47.624954644412185
 30
0.0
  0
VERTEX
  8
0
 10
147.23049285555462
 20
-47.624954644412185
 30
0.0
  0
VERTEX
  8
0
 10
151.52258196527836
 20
-47.624954644412185
 30
0.0
  0
VERTEX
  8
0
 10
155.81467107500214
 20
-47.624954644412185
 30
0.0
  0
VERTEX
  8
0
 10
160.10676018472589
 20
-47.624954644412185
 30
0.0
  0
VERTEX
  8
0
 10
164.39884929444966
 20
-47.624954644412185
 30
0.0
  0
SEQEND
  8
0
  0
POLYLINE
  8
0
 62
0
 70
0
 66
1
 10
0.0
 20
0.0
 30
0.0
  0
VERTEX
  8
0
 10
164.39884929444966
 20
-47.624954644412185
 30
0.0
  0
VERTEX
  8
0
 10
164.39884929444966
 20
-43.81495827285921
 30
0.0
  0
VERTEX
  8
0
 10
164.39884929444966
 20
-40.00496190130624
 30
0.0
  0
VERTEX
  8
0
 10
164.39884929444966
 20
-36.19496552975326
 30
0.0
  0
SEQEND
  8
0
  0
POLYLINE
  8
0
 62
0
 70
0
 66
1
 10
0.0
 20
0.0
 30
0.0
  0
VERTEX
  8
0
 10
164.39884929444966
 20
-36.19496552975326
 30
0.0
  0
VERTEX
  8
0
 10
160.10676018472589
 20
-36.19496552975326
 30
0.0
  0
VERTEX
  8
0
 10
155.81467107500214
 20
-36.19496552975326
 30
0.0
  0
VERTEX
  8
0
 10
151.52258196527836
 20
-36.19496552975326
 30
0.0
  0
VERTEX
  8
0
 10
147.23049285555462
 20
-36.19496552975326
 30
0.0
  0
VERTEX
  8
0
 10
142.93840374583084
 20
-36.19496552975326
 30
0.0
  0
SEQEND
  8
0
  0
POLYLINE
  8
0
 62
0
 70
0
 66
1
 10
0.0
 20
0.0
 30
0.0
  0
VERTEX
  8
0
 10
142.93840374583084
 20
-36.19496552975326
 30
0.0
  0
VERTEX
  8
0
 10
142.93840374583084
 20
-40.00496190130624
 30
0.0
  0
VERTEX
  8
0
 10
142.93840374583084
 20
-43.81495827285921
 30
0.0
  0
VERTEX
  8
0
 10
142.93840374583084
 20
-47.624954644412185
 30
0.0
  0
SEQEND
  8
0
  0
POLYLINE
  8
0
 62
0
 70
0
 66
1
 10
0.0
 20
0.0
 30
0.0
  0
VERTEX
  8
0
 10
206.2783410929616
 20
-36.29910543057571
 30
0.0
  0
VERTEX
  8
0
 10
201.56600926622764
 20
-36.29910543057571
 30
0.0
  0
VERTEX
  8
0
 10
196.8536774394937
 20
-36.29910543057571
 30
0.0
  0
VERTEX
  8
0
 10
192.14134561275978
 20
-36.29910543057571
 30
0.0
  0
VERTEX
  8
0
 10
187.42901378602582
 20
-36.29910543057571
 30
0.0
  0
SEQEND
  8
0
  0
POLYLINE
  8
0
 62
0
 70
0
 66
1
 10
0.0
 20
0.0
 30
0.0
  0
VERTEX
  8
0
 10
187.42901378602582
 20
-36.29910543057571
 30
0.0
  0
VERTEX
  8
0
 10
187.42901378602582
 20
-39.898282002902754
 30
0.0
  0
SEQEND
  8
0
  0
POLYLINE
  8
0
 62
0
 70
0
 66
1
 10
0.0
 20
0.0
 30
0.0
  0
VERTEX
  8
0
 10
187.42901378602582
 20
-39.898282002902754
 30
0.0
  0
VERTEX
  8
0
 10
192.14134561275978
 20
-39.898282002902754
 30
0.0
  0
VERTEX
  8
0
 10
196.8536774394937
 20
-39.898282002902754
 30
0.0
  0
VERTEX
  8
0
 10
201.56600926622764
 20
-39.898282002902754
 30
0.0
  0
VERTEX
  8
0
 10
206.2783410929616
 20
-39.898282002902754
 30
0.0
  0
SEQEND
  8
0
  0
POLYLINE
  8
0
 62
0
 70
0
 66
1
 10
0.0
 20
0.0
 30
0.0
  0
VERTEX
  8
0
 10
206.2783410929616
 20
-39.898282002902754
 30
0.0
  0
VERTEX
  8
0
 10
206.2783410929616
 20
-36.29910543057571
 30
0.0
  0
SEQEND
  8
0
  0
POLYLINE
  8
0
 62
0
 70
0
 66
1
 10
0.0
 20
0.0
 30
0.0
  0
VERTEX
  8
0
 10
164.528389207218
 20
-36.19496552975326
 30
0.0
  0
VERTEX
  8
0
 10
164.528389207218
 20
-40.00496190130624
 30
0.0
  0
VERTEX
  8
0
 10
164.528389207218
 20
-43.81495827285921
 30
0.0
  0
VERTEX
  8
0
 10
164.528389207218
 20
-47.624954644412185
 30
0.0
  0
SEQEND
  8
0
  0
POLYLINE
  8
0
 62
0
 70
0
 66
1
 10
0.0
 20
0.0
 30
0.0
  0
VERTEX
  8
0
 10
164.528389207218
 20
-47.624954644412185
 30
0.0
  0
VERTEX
  8
0
 10
168.82047831694177
 20
-47.624954644412185
 30
0.0
  0
VERTEX
  8
0
 10
173.11256742666552
 20
-47.624954644412185
 30
0.0
  0
VERTEX
  8
0
 10
177.4046565363893
 20
-47.624954644412185
 30
0.0
  0
VERTEX
  8
0
 10
181.69674564611304
 20
-47.624954644412185
 30
0.0
  0
VERTEX
  8
0
 10
185.98883475583682
 20
-47.624954644412185
 30
0.0
  0
SEQEND
  8
0
  0
POLYLINE
  8
0
 62
0
 70
0
 66
1
 10
0.0
 20
0.0
 30
0.0
  0
VERTEX
  8
0
 10
185.98883475583682
 20
-47.624954644412185
 30
0.0
  0
VERTEX
  8
0
 10
185.98883475583682
 20
-43.81495827285921
 30
0.0
  0
VERTEX
  8
0
 10
185.98883475583682
 20
-40.00496190130624
 30
0.0
  0
VERTEX
  8
0
 10
185.98883475583682
 20
-36.19496552975326
 30
0.0
  0
SEQEND
  8
0
  0
POLYLINE
  8
0
 62
0
 70
0
 66
1
 10
0.0
 20
0.0
 30
0.0
  0
VERTEX
  8
0
 10
185.98883475583682
 20
-36.19496552975326
 30
0.0
  0
VERTEX
  8
0
 10
181.69674564611304
 20
-36.19496552975326
 30
0.0
  0
VERTEX
  8
0
 10
177.4046565363893
 20
-36.19496552975326
 30
0.0
  0
VERTEX
  8
0
 10
173.11256742666552
 20
-36.19496552975326
 30
0.0
  0
VERTEX
  8
0
 10
168.82047831694177
 20
-36.19496552975326
 30
0.0
  0
VERTEX
  8
0
 10
164.528389207218
 20
-36.19496552975326
 30
0.0
  0
SEQEND
  8
0
  0
POLYLINE
  8
0
 62
0
 70
0
 66
1
 10
0.0
 20
0.0
 30
0.0
  0
VERTEX
  8
0
 10
206.2783410929616
 20
-34.81828684083212
 30
0.0
  0
VERTEX
  8
0
 10
206.2783410929616
 20
-31.219110268505077
 30
0.0
  0
SEQEND
  8
0
  0
POLYLINE
  8
0
 62
0
 70
0
 66
1
 10
0.0
 20
0.0
 30
0.0
  0
VERTEX
  8
0
 10
206.2783410929616
 20
-31.219110268505077
 30
0.0
  0
VERTEX
  8
0
 10
201.56600926622764
 20
-31.219110268505077
 30
0.0
  0
VERTEX
  8
0
 10
196.8536774394937
 20
-31.219110268505077
 30
0.0
  0
VERTEX
  8
0
 10
192.14134561275978
 20
-31.219110268505077
 30
0.0
  0
VERTEX
  8
0
 10
187.42901378602582
 20
-31.219110268505077
 30
0.0
  0
SEQEND
  8
0
  0
POLYLINE
  8
0
 62
0
 70
0
 66
1
 10
0.0
 20
0.0
 30
0.0
  0
VERTEX
  8
0
 10
187.42901378602582
 20
-31.219110268505077
 30
0.0
  0
VERTEX
  8
0
 10
187.42901378602582
 20
-34.81828684083212
 30
0.0
  0
SEQEND
  8
0
  0
POLYLINE
  8
0
 62
0
 70
0
 66
1
 10
0.0
 20
0.0
 30
0.0
  0
VERTEX
  8
0
 10
187.42901378602582
 20
-34.81828684083212
 30
0.0
  0
VERTEX
  8
0
 10
192.14134561275978
 20
-34.81828684083212
 30
0.0
  0
VERTEX
  8
0
 10
196.8536774394937
 20
-34.81828684083212
 30
0.0
  0
VERTEX
  8
0
 10
201.56600926622764
 20
-34.81828684083212
 30
0.0
  0
VERTEX
  8
0
 10
206.2783410929616
 20
-34.81828684083212
 30
0.0
  0
SEQEND
  8
0
  0
POLYLINE
  8
0
 62
0
 70
0
 66
1
 10
0.0
 20
0.0
 30
0.0
  0
VERTEX
  8
0
 10
113.76906338835201
 20
-31.219110268505077
 30
0.0
  0
VERTEX
  8
0
 10
113.76906338835201
 20
-34.81828684083212
 30
0.0
  0
SEQEND
  8
0
  0
POLYLINE
  8
0
 62
0
 70
0
 66
1
 10
0.0
 20
0.0
 30
0.0
  0
VERTEX
  8
0
 10
113.76906338835201
 20
-34.81828684083212
 30
0.0
  0
VERTEX
  8
0
 10
118.35206696884175
 20
-34.81828684083212
 30
0.0
  0
VERTEX
  8
0
 10
122.93507054933151
 20
-34.81828684083212
 30
0.0
  0
VERTEX
  8
0
 10
127.51807412982126
 20
-34.81828684083212
 30
0.0
  0
SEQEND
  8
0
  0
POLYLINE
  8
0
 62
0
 70
0
 66
1
 10
0.0
 20
0.0
 30
0.0
  0
VERTEX
  8
0
 10
127.51807412982126
 20
-34.81828684083212
 30
0.0
  0
VERTEX
  8
0
 10
127.51807412982126
 20
-31.219110268505077
 30
0.0
  0
SEQEND
  8
0
  0
POLYLINE
  8
0
 62
0
 70
0
 66
1
 10
0.0
 20
0.0
 30
0.0
  0
VERTEX
  8
0
 10
127.51807412982126
 20
-31.219110268505077
 30
0.0
  0
VERTEX
  8
0
 10
122.93507054933151
 20
-31.219110268505077
 30
0.0
  0
VERTEX
  8
0
 10
118.35206696884175
 20
-31.219110268505077
 30
0.0
  0
VERTEX
  8
0
 10
113.76906338835201
 20
-31.219110268505077
 30
0.0
  0
SEQEND
  8
0
  0
ENDBLK
  0
ENDSEC
  0
SECTION
  2
ENTITIES
  0
INSERT
  2
SHAPE2DVIEW001
  8
0
 62
0
 10
0.0
 20
0.0
 30
0.0
  0
ENDSEC
  0
EOF
