  0
SECTION
  2
HEADER
  9
$ACADVER
  1
AC1009
  9
$INSBASE
 10
0.0
 20
0.0
 30
0.0
  9
$EXTMIN
 10
0.0
 20
0.0
 30
0.0
  9
$EXTMAX
 10
0.0
 20
0.0
 30
0.0
  0
ENDSEC
  0
SECTION
  2
TABLES
  0
TABLE
  2
VPORT
 70
0
  0
ENDTAB
  0
TABLE
  2
LTYPE
 70
1
  0
LTYPE
  2
CONTINUOUS
 70
0
  3
Solid line
 72
65
 73
0
 40
0.0
  0
ENDTAB
  0
TABLE
  2
LAYER
 70
1
  0
LAYER
  2
0
 70
64
 62
7
  6
continuous
  0
ENDTAB
  0
TABLE
  2
STYLE
 70
1
  0
STYLE
  2
STANDARD
 70
0
 40
0
 41
1.0
 50
0.0
 71
0
 42
1
 3
ARIAL.TTF
 4

  0
ENDTAB
  0
TABLE
  2
VIEW
 70
0
  0
ENDTAB
  0
ENDSEC
  0
SECTION
  2
BLOCKS
  0
BLOCK
  8
0
  2
SHAPE2DVIEW
 70
0
 10
0.0
 20
0.0
 30
0.0
  3
SHAPE2DVIEW
  0
LINE
  8
0
 62
0
 10
-62.30995500000013
 20
-106.63990099990058
 30
0.0
 11
-62.30995500000013
 21
-22.899976000099414
 31
0.0
  0
ARC
  8
0
 62
0
 10
-64.80995500000013
 20
-106.63990099991275
 30
0.0
 40
2.5
 50
-89.99999999933169
 51
0.0
  0
ARC
  8
0
 62
0
 10
-64.80995500000013
 20
-22.899976000087243
 30
0.0
 40
2.5
 50
-0.0
 51
89.99999999933169
  0
LINE
  8
0
 62
0
 10
-214.589857
 20
-109.139901
 30
0.0
 11
-64.80995499997098
 21
-109.139901
 31
0.0
  0
LINE
  8
0
 62
0
 10
-64.80995499997097
 20
-20.399976
 30
0.0
 11
-214.589857
 21
-20.399976
 31
0.0
  0
ARC
  8
0
 62
0
 10
-214.589857
 20
-106.639901
 30
0.0
 40
2.5
 50
180.0
 51
-90.0
  0
ARC
  8
0
 62
0
 10
-214.589857
 20
-22.899976
 30
0.0
 40
2.5
 50
90.0
 51
-180.0
  0
LINE
  8
0
 62
0
 10
-217.089857
 20
-22.899976000000013
 30
0.0
 11
-217.089857
 21
-106.63990099999998
 31
0.0
  0
LINE
  8
0
 62
0
 10
-187.42901378602582
 20
-59.15908365989356
 30
0.0
 11
-206.2783410929616
 21
-59.15908365989356
 31
0.0
  0
LINE
  8
0
 62
0
 10
-187.42901378602582
 20
-62.75826023222061
 30
0.0
 11
-187.42901378602582
 21
-59.15908365989356
 31
0.0
  0
LINE
  8
0
 62
0
 10
-206.2783410929616
 20
-59.15908365989356
 30
0.0
 11
-206.2783410929616
 21
-62.75826023222061
 31
0.0
  0
LINE
  8
0
 62
0
 10
-206.2783410929616
 20
-62.75826023222061
 30
0.0
 11
-187.42901378602582
 21
-62.75826023222061
 31
0.0
  0
LINE
  8
0
 62
0
 10
-142.93840374583084
 20
-59.054943759071115
 30
0.0
 11
-169.93840374583084
 21
-59.054943759071115
 31
0.0
  0
LINE
  8
0
 62
0
 10
-142.93840374583084
 20
-70.48493287373003
 30
0.0
 11
-142.93840374583084
 21
-59.054943759071115
 31
0.0
  0
LINE
  8
0
 62
0
 10
-169.93840374583084
 20
-59.054943759071115
 30
0.0
 11
-185.98883475583682
 21
-59.054943759071115
 31
0.0
  0
LINE
  8
0
 62
0
 10
-169.93840374583084
 20
-70.48493287373003
 30
0.0
 11
-142.93840374583084
 21
-70.48493287373003
 31
0.0
  0
LINE
  8
0
 62
0
 10
-185.98883475583682
 20
-59.054943759071115
 30
0.0
 11
-185.98883475583682
 21
-70.48493287373003
 31
0.0
  0
LINE
  8
0
 62
0
 10
-185.98883475583682
 20
-70.48493287373003
 30
0.0
 11
-169.93840374583084
 21
-70.48493287373003
 31
0.0
  0
LINE
  8
0
 62
0
 10
-142.93840374583084
 20
-81.91492198838897
 30
0.0
 11
-169.93840374583084
 21
-81.91492198838897
 31
0.0
  0
LINE
  8
0
 62
0
 10
-142.93840374583084
 20
-93.34491110304789
 30
0.0
 11
-142.93840374583084
 21
-81.91492198838897
 31
0.0
  0
LINE
  8
0
 62
0
 10
-169.93840374583084
 20
-81.91492198838897
 30
0.0
 11
-185.98883475583682
 21
-81.91492198838897
 31
0.0
  0
LINE
  8
0
 62
0
 10
-169.93840374583084
 20
-93.34491110304789
 30
0.0
 11
-142.93840374583084
 21
-93.34491110304789
 31
0.0
  0
LINE
  8
0
 62
0
 10
-185.98883475583682
 20
-81.91492198838897
 30
0.0
 11
-185.98883475583682
 21
-93.34491110304789
 31
0.0
  0
LINE
  8
0
 62
0
 10
-185.98883475583682
 20
-93.34491110304789
 30
0.0
 11
-169.93840374583084
 21
-93.34491110304789
 31
0.0
  0
LINE
  8
0
 62
0
 10
-187.42901378602582
 20
-82.01906188921141
 30
0.0
 11
-206.2783410929616
 21
-82.01906188921141
 31
0.0
  0
LINE
  8
0
 62
0
 10
-187.42901378602582
 20
-85.61823846153845
 30
0.0
 11
-187.42901378602582
 21
-82.01906188921141
 31
0.0
  0
LINE
  8
0
 62
0
 10
-206.2783410929616
 20
-82.01906188921141
 30
0.0
 11
-206.2783410929616
 21
-85.61823846153845
 31
0.0
  0
LINE
  8
0
 62
0
 10
-206.2783410929616
 20
-85.61823846153845
 30
0.0
 11
-187.42901378602582
 21
-85.61823846153845
 31
0.0
  0
LINE
  8
0
 62
0
 10
-80.70844565124433
 20
-81.91492198838897
 30
0.0
 11
-107.70844565124433
 21
-81.91492198838897
 31
0.0
  0
LINE
  8
0
 62
0
 10
-80.70844565124433
 20
-93.34491110304789
 30
0.0
 11
-80.70844565124433
 21
-81.91492198838897
 31
0.0
  0
LINE
  8
0
 62
0
 10
-107.70844565124433
 20
-81.91492198838897
 30
0.0
 11
-123.75887666125033
 21
-81.91492198838897
 31
0.0
  0
LINE
  8
0
 62
0
 10
-107.70844565124433
 20
-93.34491110304789
 30
0.0
 11
-80.70844565124433
 21
-93.34491110304789
 31
0.0
  0
LINE
  8
0
 62
0
 10
-123.75887666125033
 20
-81.91492198838897
 30
0.0
 11
-123.75887666125033
 21
-93.34491110304789
 31
0.0
  0
LINE
  8
0
 62
0
 10
-123.75887666125033
 20
-93.34491110304789
 30
0.0
 11
-107.70844565124433
 21
-93.34491110304789
 31
0.0
  0
LINE
  8
0
 62
0
 10
-80.70844565124433
 20
-59.054943759071115
 30
0.0
 11
-107.70844565124433
 21
-59.054943759071115
 31
0.0
  0
LINE
  8
0
 62
0
 10
-80.70844565124433
 20
-70.48493287373003
 30
0.0
 11
-80.70844565124433
 21
-59.054943759071115
 31
0.0
  0
LINE
  8
0
 62
0
 10
-107.70844565124433
 20
-59.054943759071115
 30
0.0
 11
-123.75887666125033
 21
-59.054943759071115
 31
0.0
  0
LINE
  8
0
 62
0
 10
-107.70844565124433
 20
-70.48493287373003
 30
0.0
 11
-80.70844565124433
 21
-70.48493287373003
 31
0.0
  0
LINE
  8
0
 62
0
 10
-123.75887666125033
 20
-59.054943759071115
 30
0.0
 11
-123.75887666125033
 21
-70.48493287373003
 31
0.0
  0
LINE
  8
0
 62
0
 10
-123.75887666125033
 20
-70.48493287373003
 30
0.0
 11
-107.70844565124433
 21
-70.48493287373003
 31
0.0
  0
CIRCLE
  8
0
 62
0
 10
-135.9857945233878
 20
-87.62992198838897
 30
0.0
 40
4.5
  0
CIRCLE
  8
0
 62
0
 10
-135.98579452338777
 20
-64.76994375907115
 30
0.0
 40
4.5
  0
CIRCLE
  8
0
 62
0
 10
-73.75583642880129
 20
-87.62992198838897
 30
0.0
 40
4.5
  0
CIRCLE
  8
0
 62
0
 10
-73.75583642880129
 20
-64.76994375907111
 30
0.0
 40
4.5
  0
LINE
  8
0
 62
0
 10
-113.76906338835201
 20
-31.219110268505077
 30
0.0
 11
-127.51807412982126
 21
-31.219110268505077
 31
0.0
  0
LINE
  8
0
 62
0
 10
-113.76906338835201
 20
-34.81828684083212
 30
0.0
 11
-113.76906338835201
 21
-31.219110268505077
 31
0.0
  0
LINE
  8
0
 62
0
 10
-127.51807412982126
 20
-31.219110268505077
 30
0.0
 11
-127.51807412982126
 21
-34.81828684083212
 31
0.0
  0
LINE
  8
0
 62
0
 10
-127.51807412982126
 20
-34.81828684083212
 30
0.0
 11
-113.76906338835201
 21
-34.81828684083212
 31
0.0
  0
CIRCLE
  8
0
 62
0
 10
-135.9857945233878
 20
-41.90996552975326
 30
0.0
 40
4.5
  0
LINE
  8
0
 62
0
 10
-187.42901378602582
 20
-36.29910543057571
 30
0.0
 11
-206.2783410929616
 21
-36.29910543057571
 31
0.0
  0
LINE
  8
0
 62
0
 10
-187.42901378602582
 20
-39.898282002902754
 30
0.0
 11
-187.42901378602582
 21
-36.29910543057571
 31
0.0
  0
LINE
  8
0
 62
0
 10
-206.2783410929616
 20
-36.29910543057571
 30
0.0
 11
-206.2783410929616
 21
-39.898282002902754
 31
0.0
  0
LINE
  8
0
 62
0
 10
-206.2783410929616
 20
-39.898282002902754
 30
0.0
 11
-187.42901378602582
 21
-39.898282002902754
 31
0.0
  0
LINE
  8
0
 62
0
 10
-187.42901378602582
 20
-31.219110268505077
 30
0.0
 11
-206.2783410929616
 21
-31.219110268505077
 31
0.0
  0
LINE
  8
0
 62
0
 10
-187.42901378602582
 20
-34.81828684083212
 30
0.0
 11
-187.42901378602582
 21
-31.219110268505077
 31
0.0
  0
LINE
  8
0
 62
0
 10
-206.2783410929616
 20
-31.219110268505077
 30
0.0
 11
-206.2783410929616
 21
-34.81828684083212
 31
0.0
  0
LINE
  8
0
 62
0
 10
-206.2783410929616
 20
-34.81828684083212
 30
0.0
 11
-187.42901378602582
 21
-34.81828684083212
 31
0.0
  0
LINE
  8
0
 62
0
 10
-142.93840374583084
 20
-36.19496552975326
 30
0.0
 11
-169.93840374583084
 21
-36.19496552975326
 31
0.0
  0
LINE
  8
0
 62
0
 10
-142.93840374583084
 20
-47.624954644412185
 30
0.0
 11
-142.93840374583084
 21
-36.19496552975326
 31
0.0
  0
LINE
  8
0
 62
0
 10
-169.93840374583084
 20
-36.19496552975326
 30
0.0
 11
-185.98883475583682
 21
-36.19496552975326
 31
0.0
  0
LINE
  8
0
 62
0
 10
-169.93840374583084
 20
-47.624954644412185
 30
0.0
 11
-142.93840374583084
 21
-47.624954644412185
 31
0.0
  0
LINE
  8
0
 62
0
 10
-185.98883475583682
 20
-36.19496552975326
 30
0.0
 11
-185.98883475583682
 21
-47.624954644412185
 31
0.0
  0
LINE
  8
0
 62
0
 10
-185.98883475583682
 20
-47.624954644412185
 30
0.0
 11
-169.93840374583084
 21
-47.624954644412185
 31
0.0
  0
LINE
  8
0
 62
0
 10
-107.70844565124433
 20
-70.48493287373003
 30
0.0
 11
-107.70844565124433
 21
-70.48494375907111
 31
0.0
  0
LINE
  8
0
 62
0
 10
-169.93840374583084
 20
-47.62496552975326
 30
0.0
 11
-142.93840374583084
 21
-47.62496552975326
 31
0.0
  0
LINE
  8
0
 62
0
 10
-169.93840374583084
 20
-47.624954644412185
 30
0.0
 11
-169.93840374583084
 21
-47.62496552975326
 31
0.0
  0
LINE
  8
0
 62
0
 10
-107.70844565124433
 20
-93.34491110304789
 30
0.0
 11
-107.70844565124433
 21
-93.34492198838896
 31
0.0
  0
LINE
  8
0
 62
0
 10
-169.93840374583084
 20
-93.34491110304789
 30
0.0
 11
-169.93840374583084
 21
-93.34492198838896
 31
0.0
  0
LINE
  8
0
 62
0
 10
-169.93840374583084
 20
-81.91492198838897
 30
0.0
 11
-169.93840374583084
 21
-93.34491110304789
 31
0.0
  0
LINE
  8
0
 62
0
 10
-169.93840374583084
 20
-59.054943759071115
 30
0.0
 11
-169.93840374583084
 21
-70.48493287373003
 31
0.0
  0
LINE
  8
0
 62
0
 10
-169.93840374583084
 20
-36.19496552975326
 30
0.0
 11
-169.93840374583084
 21
-47.624954644412185
 31
0.0
  0
LINE
  8
0
 62
0
 10
-107.70844565124433
 20
-81.91492198838897
 30
0.0
 11
-107.70844565124433
 21
-93.34491110304789
 31
0.0
  0
LINE
  8
0
 62
0
 10
-107.70844565124433
 20
-59.054943759071115
 30
0.0
 11
-107.70844565124433
 21
-70.48493287373003
 31
0.0
  0
ENDBLK
  0
ENDSEC
  0
SECTION
  2
ENTITIES
  0
INSERT
  2
SHAPE2DVIEW
  8
0
 62
0
 10
0.0
 20
0.0
 30
0.0
  0
ENDSEC
  0
EOF
